<svg width="62" height="62" viewBox="0 0 62 62" fill="none" xmlns="http://www.w3.org/2000/svg">
<path d="M49.9518 24.9728C49.9511 19.3056 48.023 13.8071 44.4843 9.38054C40.9457 4.95395 36.0067 1.86243 30.4788 0.613788C24.9509 -0.634854 19.1626 0.0336215 14.0648 2.50942C8.96704 4.98521 4.86279 9.12111 2.42624 14.2378C-0.0103113 19.3545 -0.634293 25.1477 0.656786 30.6658C1.94787 36.184 5.07724 41.099 9.53089 44.6036C13.9845 48.1082 19.4977 49.9939 25.1647 49.9511C30.8317 49.9082 36.3157 47.9394 40.7159 44.3679L57.5961 61.2481L57.889 61.4996C58.4133 61.8842 59.0634 62.057 59.7095 61.9834C60.3557 61.9098 60.9503 61.5953 61.3747 61.1026C61.7991 60.6099 62.0221 59.9753 61.9993 59.3254C61.9764 58.6755 61.7093 58.0581 61.2512 57.5965L44.371 40.7128C47.9897 36.2661 49.9611 30.7058 49.9518 24.9728ZM28.4209 14.638C28.4209 15.5516 28.0579 16.4278 27.4119 17.0739C26.7658 17.72 25.8896 18.0829 24.9759 18.0829C24.0622 18.0829 23.186 17.72 22.54 17.0739C21.8939 16.4278 21.531 15.5516 21.531 14.638C21.531 13.7243 21.8939 12.8481 22.54 12.202C23.186 11.556 24.0622 11.193 24.9759 11.193C25.8896 11.193 26.7658 11.556 27.4119 12.202C28.0579 12.8481 28.4209 13.7243 28.4209 14.638ZM24.9759 21.5279C25.6611 21.5279 26.3183 21.8001 26.8029 22.2846C27.2874 22.7691 27.5596 23.4263 27.5596 24.1116V36.1689C27.5596 36.8541 27.2874 37.5113 26.8029 37.9958C26.3183 38.4804 25.6611 38.7526 24.9759 38.7526C24.2907 38.7526 23.6335 38.4804 23.1489 37.9958C22.6644 37.5113 22.3922 36.8541 22.3922 36.1689V24.1116C22.3922 23.4263 22.6644 22.7691 23.1489 22.2846C23.6335 21.8001 24.2907 21.5279 24.9759 21.5279Z" fill="#E1E1E1"/>
</svg>
