<svg width="80" height="62" viewBox="0 0 80 62" fill="none" xmlns="http://www.w3.org/2000/svg">
<path d="M75.3096 0.00751554C67.6984 0.437915 52.5704 2.00451 43.2313 7.70074C42.5869 8.09377 42.2216 8.79265 42.2216 9.52336V59.8801C42.2216 61.4786 43.9758 62.4888 45.455 61.747C55.0635 56.9282 68.9595 55.6135 75.8305 55.2537C78.1764 55.1305 80 53.2567 80 51.0106V4.25616C80.0014 1.80523 77.868 -0.136412 75.3096 0.00751554ZM36.7687 7.70074C27.431 2.00451 12.303 0.439299 4.69175 0.00751554C2.13337 -0.136412 0 1.80523 0 4.25616V51.012C0 53.2594 1.82364 55.1333 4.16952 55.2551C11.0432 55.6149 24.9463 56.931 34.5548 61.7526C36.0298 62.493 37.7784 61.4841 37.7784 59.8898V9.49845C37.7784 8.76636 37.4145 8.09515 36.7687 7.70074Z" fill="#E1E1E1"/>
</svg>
